<svg xmlns="http://www.w3.org/2000/svg" width="2048" height="2048" viewBox="0 0 2048 2048">
<rect x="0" y="0" width="2048" height="2048" fill="#ffffff"/>
<path d="M 738.545 196.182 L 767.091 196.182 L 767.091 196.182 L 767.091 253.273 L 767.091 253.273 L 710 253.273 L 710 253.273 L 710 224.727 Q 710 196.182 738.545 196.182 Z" fill="#000000"/>
<path d="M 767.091 196.182 L 795.636 196.182 Q 824.182 196.182 824.182 224.727 L 824.182 224.727 Q 824.182 253.273 795.636 253.273 L 767.091 253.273 L 767.091 253.273 L 767.091 196.182 L 767.091 196.182 Z" fill="#000000"/>
<circle cx="1024" cy="224.727" r="28.545" fill="#000000"/>
<path d="M 1309.455 196.182 L 1309.455 196.182 Q 1338 196.182 1338 224.727 L 1338 253.273 L 1338 253.273 L 1280.909 253.273 L 1280.909 253.273 L 1280.909 224.727 Q 1280.909 196.182 1309.455 196.182 Z" fill="#000000"/>
<path d="M 681.455 253.273 L 710 253.273 L 710 253.273 L 710 310.364 L 710 310.364 L 681.455 310.364 Q 652.909 310.364 652.909 281.818 L 652.909 281.818 Q 652.909 253.273 681.455 253.273 Z" fill="#000000"/>
<path d="M 710 253.273 L 767.091 253.273 L 767.091 253.273 L 767.091 310.364 L 767.091 310.364 L 710 310.364 L 710 310.364 L 710 253.273 L 710 253.273 Z" fill="#000000"/>
<circle cx="966.909" cy="281.818" r="28.545" fill="#000000"/>
<path d="M 1252.364 253.273 L 1280.909 253.273 L 1280.909 253.273 L 1280.909 310.364 L 1280.909 310.364 L 1252.364 310.364 Q 1223.818 310.364 1223.818 281.818 L 1223.818 281.818 Q 1223.818 253.273 1252.364 253.273 Z" fill="#000000"/>
<path d="M 1280.909 253.273 L 1338 253.273 L 1338 253.273 L 1338 310.364 L 1338 310.364 L 1280.909 310.364 L 1280.909 310.364 L 1280.909 253.273 L 1280.909 253.273 Z" fill="#000000"/>
<path d="M 1338 253.273 L 1366.545 253.273 Q 1395.091 253.273 1395.091 281.818 L 1395.091 310.364 L 1395.091 310.364 L 1338 310.364 L 1338 310.364 L 1338 253.273 L 1338 253.273 Z" fill="#000000"/>
<path d="M 710 310.364 L 767.091 310.364 L 767.091 310.364 L 767.091 367.455 L 767.091 367.455 L 710 367.455 L 710 367.455 L 710 310.364 L 710 310.364 Z" fill="#000000"/>
<path d="M 767.091 310.364 L 824.182 310.364 L 824.182 310.364 L 824.182 367.455 L 824.182 367.455 L 767.091 367.455 L 767.091 367.455 L 767.091 310.364 L 767.091 310.364 Z" fill="#000000"/>
<path d="M 824.182 310.364 L 852.727 310.364 Q 881.273 310.364 881.273 338.909 L 881.273 338.909 Q 881.273 367.455 852.727 367.455 L 824.182 367.455 L 824.182 367.455 L 824.182 310.364 L 824.182 310.364 Z" fill="#000000"/>
<circle cx="1081.091" cy="338.909" r="28.545" fill="#000000"/>
<path d="M 1338 310.364 L 1395.091 310.364 L 1395.091 310.364 L 1395.091 367.455 L 1395.091 367.455 L 1338 367.455 L 1338 367.455 L 1338 310.364 L 1338 310.364 Z" fill="#000000"/>
<path d="M 710 367.455 L 767.091 367.455 L 767.091 367.455 L 767.091 424.545 L 767.091 424.545 L 710 424.545 L 710 424.545 L 710 367.455 L 710 367.455 Z" fill="#000000"/>
<path d="M 767.091 367.455 L 824.182 367.455 L 824.182 367.455 L 824.182 396 Q 824.182 424.545 795.636 424.545 L 767.091 424.545 L 767.091 424.545 L 767.091 367.455 L 767.091 367.455 Z" fill="#000000"/>
<path d="M 909.818 367.455 L 938.364 367.455 L 938.364 367.455 L 938.364 424.545 L 938.364 424.545 L 909.818 424.545 Q 881.273 424.545 881.273 396 L 881.273 396 Q 881.273 367.455 909.818 367.455 Z" fill="#000000"/>
<path d="M 938.364 367.455 L 966.909 367.455 Q 995.455 367.455 995.455 396 L 995.455 424.545 L 995.455 424.545 L 938.364 424.545 L 938.364 424.545 L 938.364 367.455 L 938.364 367.455 Z" fill="#000000"/>
<path d="M 1138.182 367.455 L 1138.182 367.455 Q 1166.727 367.455 1166.727 396 L 1166.727 424.545 L 1166.727 424.545 L 1109.636 424.545 L 1109.636 424.545 L 1109.636 396 Q 1109.636 367.455 1138.182 367.455 Z" fill="#000000"/>
<path d="M 1252.364 367.455 L 1252.364 367.455 Q 1280.909 367.455 1280.909 396 L 1280.909 424.545 L 1280.909 424.545 L 1223.818 424.545 L 1223.818 424.545 L 1223.818 396 Q 1223.818 367.455 1252.364 367.455 Z" fill="#000000"/>
<path d="M 1338 367.455 L 1395.091 367.455 L 1395.091 367.455 L 1395.091 396 Q 1395.091 424.545 1366.545 424.545 L 1366.545 424.545 Q 1338 424.545 1338 396 L 1338 367.455 L 1338 367.455 Z" fill="#000000"/>
<path d="M 681.455 424.545 L 710 424.545 L 710 424.545 L 710 481.636 L 710 481.636 L 681.455 481.636 Q 652.909 481.636 652.909 453.091 L 652.909 453.091 Q 652.909 424.545 681.455 424.545 Z" fill="#000000"/>
<path d="M 710 424.545 L 767.091 424.545 L 767.091 424.545 L 767.091 453.091 Q 767.091 481.636 738.545 481.636 L 710 481.636 L 710 481.636 L 710 424.545 L 710 424.545 Z" fill="#000000"/>
<path d="M 938.364 424.545 L 995.455 424.545 L 995.455 424.545 L 995.455 453.091 Q 995.455 481.636 966.909 481.636 L 966.909 481.636 Q 938.364 481.636 938.364 453.091 L 938.364 424.545 L 938.364 424.545 Z" fill="#000000"/>
<path d="M 1109.636 424.545 L 1166.727 424.545 L 1166.727 424.545 L 1166.727 481.636 L 1166.727 481.636 L 1109.636 481.636 L 1109.636 481.636 L 1109.636 424.545 L 1109.636 424.545 Z" fill="#000000"/>
<path d="M 1223.818 424.545 L 1280.909 424.545 L 1280.909 424.545 L 1280.909 481.636 L 1280.909 481.636 L 1223.818 481.636 L 1223.818 481.636 L 1223.818 424.545 L 1223.818 424.545 Z" fill="#000000"/>
<path d="M 852.727 481.636 L 881.273 481.636 L 881.273 481.636 L 881.273 538.727 L 881.273 538.727 L 852.727 538.727 Q 824.182 538.727 824.182 510.182 L 824.182 510.182 Q 824.182 481.636 852.727 481.636 Z" fill="#000000"/>
<path d="M 881.273 481.636 L 909.818 481.636 Q 938.364 481.636 938.364 510.182 L 938.364 538.727 L 938.364 538.727 L 881.273 538.727 L 881.273 538.727 L 881.273 481.636 L 881.273 481.636 Z" fill="#000000"/>
<path d="M 1024 481.636 L 1052.545 481.636 L 1052.545 481.636 L 1052.545 538.727 L 1052.545 538.727 L 995.455 538.727 L 995.455 538.727 L 995.455 510.182 Q 995.455 481.636 1024 481.636 Z" fill="#000000"/>
<path d="M 1052.545 481.636 L 1109.636 481.636 L 1109.636 481.636 L 1109.636 538.727 L 1109.636 538.727 L 1052.545 538.727 L 1052.545 538.727 L 1052.545 481.636 L 1052.545 481.636 Z" fill="#000000"/>
<path d="M 1109.636 481.636 L 1166.727 481.636 L 1166.727 481.636 L 1166.727 538.727 L 1166.727 538.727 L 1109.636 538.727 L 1109.636 538.727 L 1109.636 481.636 L 1109.636 481.636 Z" fill="#000000"/>
<path d="M 1223.818 481.636 L 1280.909 481.636 L 1280.909 481.636 L 1280.909 538.727 L 1280.909 538.727 L 1223.818 538.727 L 1223.818 538.727 L 1223.818 481.636 L 1223.818 481.636 Z" fill="#000000"/>
<path d="M 1280.909 481.636 L 1309.455 481.636 Q 1338 481.636 1338 510.182 L 1338 510.182 Q 1338 538.727 1309.455 538.727 L 1280.909 538.727 L 1280.909 538.727 L 1280.909 481.636 L 1280.909 481.636 Z" fill="#000000"/>
<circle cx="681.455" cy="567.273" r="28.545" fill="#000000"/>
<circle cx="795.636" cy="567.273" r="28.545" fill="#000000"/>
<path d="M 881.273 538.727 L 938.364 538.727 L 938.364 538.727 L 938.364 595.818 L 938.364 595.818 L 881.273 595.818 L 881.273 595.818 L 881.273 538.727 L 881.273 538.727 Z" fill="#000000"/>
<path d="M 995.455 538.727 L 1052.545 538.727 L 1052.545 538.727 L 1052.545 567.273 Q 1052.545 595.818 1024 595.818 L 1024 595.818 Q 995.455 595.818 995.455 567.273 L 995.455 538.727 L 995.455 538.727 Z" fill="#000000"/>
<path d="M 1109.636 538.727 L 1166.727 538.727 L 1166.727 538.727 L 1166.727 567.273 Q 1166.727 595.818 1138.182 595.818 L 1138.182 595.818 Q 1109.636 595.818 1109.636 567.273 L 1109.636 538.727 L 1109.636 538.727 Z" fill="#000000"/>
<path d="M 1223.818 538.727 L 1280.909 538.727 L 1280.909 538.727 L 1280.909 567.273 Q 1280.909 595.818 1252.364 595.818 L 1252.364 595.818 Q 1223.818 595.818 1223.818 567.273 L 1223.818 538.727 L 1223.818 538.727 Z" fill="#000000"/>
<circle cx="1366.545" cy="567.273" r="28.545" fill="#000000"/>
<path d="M 881.273 595.818 L 938.364 595.818 L 938.364 595.818 L 938.364 652.909 L 938.364 652.909 L 881.273 652.909 L 881.273 652.909 L 881.273 595.818 L 881.273 595.818 Z" fill="#000000"/>
<circle cx="1081.091" cy="624.364" r="28.545" fill="#000000"/>
<circle cx="1195.273" cy="624.364" r="28.545" fill="#000000"/>
<path d="M 1309.455 595.818 L 1309.455 595.818 Q 1338 595.818 1338 624.364 L 1338 652.909 L 1338 652.909 L 1280.909 652.909 L 1280.909 652.909 L 1280.909 624.364 Q 1280.909 595.818 1309.455 595.818 Z" fill="#000000"/>
<circle cx="224.727" cy="681.455" r="28.545" fill="#000000"/>
<circle cx="338.909" cy="681.455" r="28.545" fill="#000000"/>
<path d="M 453.091 652.909 L 453.091 652.909 Q 481.636 652.909 481.636 681.455 L 481.636 710 L 481.636 710 L 424.545 710 L 424.545 710 L 424.545 681.455 Q 424.545 652.909 453.091 652.909 Z" fill="#000000"/>
<circle cx="567.273" cy="681.455" r="28.545" fill="#000000"/>
<path d="M 795.636 652.909 L 824.182 652.909 L 824.182 652.909 L 824.182 710 L 824.182 710 L 767.091 710 L 767.091 710 L 767.091 681.455 Q 767.091 652.909 795.636 652.909 Z" fill="#000000"/>
<path d="M 824.182 652.909 L 881.273 652.909 L 881.273 652.909 L 881.273 710 L 881.273 710 L 824.182 710 L 824.182 710 L 824.182 652.909 L 824.182 652.909 Z" fill="#000000"/>
<path d="M 881.273 652.909 L 938.364 652.909 L 938.364 652.909 L 938.364 681.455 Q 938.364 710 909.818 710 L 881.273 710 L 881.273 710 L 881.273 652.909 L 881.273 652.909 Z" fill="#000000"/>
<path d="M 1138.182 652.909 L 1138.182 652.909 Q 1166.727 652.909 1166.727 681.455 L 1166.727 710 L 1166.727 710 L 1109.636 710 L 1109.636 710 L 1109.636 681.455 Q 1109.636 652.909 1138.182 652.909 Z" fill="#000000"/>
<path d="M 1280.909 652.909 L 1338 652.909 L 1338 652.909 L 1338 681.455 Q 1338 710 1309.455 710 L 1309.455 710 Q 1280.909 710 1280.909 681.455 L 1280.909 652.909 L 1280.909 652.909 Z" fill="#000000"/>
<circle cx="1594.909" cy="681.455" r="28.545" fill="#000000"/>
<circle cx="1766.182" cy="681.455" r="28.545" fill="#000000"/>
<path d="M 396 710 L 424.545 710 L 424.545 710 L 424.545 767.091 L 424.545 767.091 L 367.455 767.091 L 367.455 767.091 L 367.455 738.545 Q 367.455 710 396 710 Z" fill="#000000"/>
<rect x="424.545" y="710" width="57.091" height="57.091" fill="#000000"/>
<path d="M 481.636 710 L 510.182 710 Q 538.727 710 538.727 738.545 L 538.727 767.091 L 538.727 767.091 L 481.636 767.091 L 481.636 767.091 L 481.636 710 L 481.636 710 Z" fill="#000000"/>
<path d="M 738.545 710 L 767.091 710 L 767.091 710 L 767.091 767.091 L 767.091 767.091 L 710 767.091 L 710 767.091 L 710 738.545 Q 710 710 738.545 710 Z" fill="#000000"/>
<path d="M 767.091 710 L 824.182 710 L 824.182 710 L 824.182 767.091 L 824.182 767.091 L 767.091 767.091 L 767.091 767.091 L 767.091 710 L 767.091 710 Z" fill="#000000"/>
<path d="M 824.182 710 L 881.273 710 L 881.273 710 L 881.273 738.545 Q 881.273 767.091 852.727 767.091 L 824.182 767.091 L 824.182 767.091 L 824.182 710 L 824.182 710 Z" fill="#000000"/>
<circle cx="966.909" cy="738.545" r="28.545" fill="#000000"/>
<path d="M 1081.091 710 L 1109.636 710 L 1109.636 710 L 1109.636 767.091 L 1109.636 767.091 L 1052.545 767.091 L 1052.545 767.091 L 1052.545 738.545 Q 1052.545 710 1081.091 710 Z" fill="#000000"/>
<path d="M 1109.636 710 L 1166.727 710 L 1166.727 710 L 1166.727 767.091 L 1166.727 767.091 L 1109.636 767.091 L 1109.636 767.091 L 1109.636 710 L 1109.636 710 Z" fill="#000000"/>
<path d="M 1252.364 710 L 1252.364 710 Q 1280.909 710 1280.909 738.545 L 1280.909 767.091 L 1280.909 767.091 L 1223.818 767.091 L 1223.818 767.091 L 1223.818 738.545 Q 1223.818 710 1252.364 710 Z" fill="#000000"/>
<path d="M 1480.727 710 L 1480.727 710 Q 1509.273 710 1509.273 738.545 L 1509.273 767.091 L 1509.273 767.091 L 1452.182 767.091 L 1452.182 767.091 L 1452.182 738.545 Q 1452.182 710 1480.727 710 Z" fill="#000000"/>
<circle cx="1652" cy="738.545" r="28.545" fill="#000000"/>
<path d="M 1823.273 710 L 1823.273 710 Q 1851.818 710 1851.818 738.545 L 1851.818 767.091 L 1851.818 767.091 L 1794.727 767.091 L 1794.727 767.091 L 1794.727 738.545 Q 1794.727 710 1823.273 710 Z" fill="#000000"/>
<path d="M 224.727 767.091 L 224.727 767.091 Q 253.273 767.091 253.273 795.636 L 253.273 824.182 L 253.273 824.182 L 196.182 824.182 L 196.182 824.182 L 196.182 795.636 Q 196.182 767.091 224.727 767.091 Z" fill="#000000"/>
<path d="M 367.455 767.091 L 424.545 767.091 L 424.545 767.091 L 424.545 824.182 L 424.545 824.182 L 367.455 824.182 L 367.455 824.182 L 367.455 767.091 L 367.455 767.091 Z" fill="#000000"/>
<path d="M 424.545 767.091 L 481.636 767.091 L 481.636 767.091 L 481.636 824.182 L 481.636 824.182 L 424.545 824.182 L 424.545 824.182 L 424.545 767.091 L 424.545 767.091 Z" fill="#000000"/>
<path d="M 481.636 767.091 L 538.727 767.091 L 538.727 767.091 L 538.727 824.182 L 538.727 824.182 L 481.636 824.182 L 481.636 824.182 L 481.636 767.091 L 481.636 767.091 Z" fill="#000000"/>
<path d="M 538.727 767.091 L 595.818 767.091 L 595.818 767.091 L 595.818 824.182 L 595.818 824.182 L 538.727 824.182 L 538.727 824.182 L 538.727 767.091 L 538.727 767.091 Z" fill="#000000"/>
<path d="M 595.818 767.091 L 652.909 767.091 L 652.909 767.091 L 652.909 824.182 L 652.909 824.182 L 595.818 824.182 L 595.818 824.182 L 595.818 767.091 L 595.818 767.091 Z" fill="#000000"/>
<path d="M 652.909 767.091 L 710 767.091 L 710 767.091 L 710 824.182 L 710 824.182 L 652.909 824.182 L 652.909 824.182 L 652.909 767.091 L 652.909 767.091 Z" fill="#000000"/>
<path d="M 710 767.091 L 767.091 767.091 L 767.091 767.091 L 767.091 795.636 Q 767.091 824.182 738.545 824.182 L 710 824.182 L 710 824.182 L 710 767.091 L 710 767.091 Z" fill="#000000"/>
<path d="M 1024 767.091 L 1052.545 767.091 L 1052.545 767.091 L 1052.545 824.182 L 1052.545 824.182 L 995.455 824.182 L 995.455 824.182 L 995.455 795.636 Q 995.455 767.091 1024 767.091 Z" fill="#000000"/>
<path d="M 1052.545 767.091 L 1109.636 767.091 L 1109.636 767.091 L 1109.636 824.182 L 1109.636 824.182 L 1052.545 824.182 L 1052.545 824.182 L 1052.545 767.091 L 1052.545 767.091 Z" fill="#000000"/>
<path d="M 1109.636 767.091 L 1166.727 767.091 L 1166.727 767.091 L 1166.727 824.182 L 1166.727 824.182 L 1109.636 824.182 L 1109.636 824.182 L 1109.636 767.091 L 1109.636 767.091 Z" fill="#000000"/>
<path d="M 1223.818 767.091 L 1280.909 767.091 L 1280.909 767.091 L 1280.909 824.182 L 1280.909 824.182 L 1223.818 824.182 L 1223.818 824.182 L 1223.818 767.091 L 1223.818 767.091 Z" fill="#000000"/>
<path d="M 1423.636 767.091 L 1452.182 767.091 L 1452.182 767.091 L 1452.182 824.182 L 1452.182 824.182 L 1395.091 824.182 L 1395.091 824.182 L 1395.091 795.636 Q 1395.091 767.091 1423.636 767.091 Z" fill="#000000"/>
<path d="M 1452.182 767.091 L 1509.273 767.091 L 1509.273 767.091 L 1509.273 795.636 Q 1509.273 824.182 1480.727 824.182 L 1452.182 824.182 L 1452.182 824.182 L 1452.182 767.091 L 1452.182 767.091 Z" fill="#000000"/>
<path d="M 1709.091 767.091 L 1737.636 767.091 L 1737.636 767.091 L 1737.636 824.182 L 1737.636 824.182 L 1709.091 824.182 Q 1680.545 824.182 1680.545 795.636 L 1680.545 795.636 Q 1680.545 767.091 1709.091 767.091 Z" fill="#000000"/>
<path d="M 1737.636 767.091 L 1794.727 767.091 L 1794.727 767.091 L 1794.727 824.182 L 1794.727 824.182 L 1737.636 824.182 L 1737.636 824.182 L 1737.636 767.091 L 1737.636 767.091 Z" fill="#000000"/>
<path d="M 1794.727 767.091 L 1851.818 767.091 L 1851.818 767.091 L 1851.818 795.636 Q 1851.818 824.182 1823.273 824.182 L 1794.727 824.182 L 1794.727 824.182 L 1794.727 767.091 L 1794.727 767.091 Z" fill="#000000"/>
<path d="M 196.182 824.182 L 253.273 824.182 L 253.273 824.182 L 253.273 852.727 Q 253.273 881.273 224.727 881.273 L 224.727 881.273 Q 196.182 881.273 196.182 852.727 L 196.182 824.182 L 196.182 824.182 Z" fill="#000000"/>
<path d="M 367.455 824.182 L 424.545 824.182 L 424.545 824.182 L 424.545 881.273 L 424.545 881.273 L 367.455 881.273 L 367.455 881.273 L 367.455 824.182 L 367.455 824.182 Z" fill="#000000"/>
<path d="M 652.909 824.182 L 710 824.182 L 710 824.182 L 710 881.273 L 710 881.273 L 652.909 881.273 L 652.909 881.273 L 652.909 824.182 L 652.909 824.182 Z" fill="#000000"/>
<path d="M 909.818 824.182 L 938.364 824.182 L 938.364 824.182 L 938.364 881.273 L 938.364 881.273 L 909.818 881.273 Q 881.273 881.273 881.273 852.727 L 881.273 852.727 Q 881.273 824.182 909.818 824.182 Z" fill="#000000"/>
<path d="M 938.364 824.182 L 995.455 824.182 L 995.455 824.182 L 995.455 881.273 L 995.455 881.273 L 938.364 881.273 L 938.364 881.273 L 938.364 824.182 L 938.364 824.182 Z" fill="#000000"/>
<path d="M 995.455 824.182 L 1052.545 824.182 L 1052.545 824.182 L 1052.545 881.273 L 1052.545 881.273 L 995.455 881.273 L 995.455 881.273 L 995.455 824.182 L 995.455 824.182 Z" fill="#000000"/>
<path d="M 1109.636 824.182 L 1166.727 824.182 L 1166.727 824.182 L 1166.727 881.273 L 1166.727 881.273 L 1138.182 881.273 Q 1109.636 881.273 1109.636 852.727 L 1109.636 824.182 L 1109.636 824.182 Z" fill="#000000"/>
<path d="M 1166.727 824.182 L 1223.818 824.182 L 1223.818 824.182 L 1223.818 881.273 L 1223.818 881.273 L 1166.727 881.273 L 1166.727 881.273 L 1166.727 824.182 L 1166.727 824.182 Z" fill="#000000"/>
<path d="M 1223.818 824.182 L 1280.909 824.182 L 1280.909 824.182 L 1280.909 852.727 Q 1280.909 881.273 1252.364 881.273 L 1223.818 881.273 L 1223.818 881.273 L 1223.818 824.182 L 1223.818 824.182 Z" fill="#000000"/>
<path d="M 1366.545 824.182 L 1395.091 824.182 L 1395.091 824.182 L 1395.091 881.273 L 1395.091 881.273 L 1338 881.273 L 1338 881.273 L 1338 852.727 Q 1338 824.182 1366.545 824.182 Z" fill="#000000"/>
<path d="M 1395.091 824.182 L 1452.182 824.182 L 1452.182 824.182 L 1452.182 852.727 Q 1452.182 881.273 1423.636 881.273 L 1395.091 881.273 L 1395.091 881.273 L 1395.091 824.182 L 1395.091 824.182 Z" fill="#000000"/>
<circle cx="1594.909" cy="852.727" r="28.545" fill="#000000"/>
<path d="M 1737.636 824.182 L 1794.727 824.182 L 1794.727 824.182 L 1794.727 881.273 L 1794.727 881.273 L 1737.636 881.273 L 1737.636 881.273 L 1737.636 824.182 L 1737.636 824.182 Z" fill="#000000"/>
<path d="M 281.818 881.273 L 310.364 881.273 L 310.364 881.273 L 310.364 938.364 L 310.364 938.364 L 253.273 938.364 L 253.273 938.364 L 253.273 909.818 Q 253.273 881.273 281.818 881.273 Z" fill="#000000"/>
<path d="M 310.364 881.273 L 367.455 881.273 L 367.455 881.273 L 367.455 938.364 L 367.455 938.364 L 310.364 938.364 L 310.364 938.364 L 310.364 881.273 L 310.364 881.273 Z" fill="#000000"/>
<path d="M 367.455 881.273 L 424.545 881.273 L 424.545 881.273 L 424.545 938.364 L 424.545 938.364 L 367.455 938.364 L 367.455 938.364 L 367.455 881.273 L 367.455 881.273 Z" fill="#000000"/>
<path d="M 424.545 881.273 L 481.636 881.273 L 481.636 881.273 L 481.636 938.364 L 481.636 938.364 L 424.545 938.364 L 424.545 938.364 L 424.545 881.273 L 424.545 881.273 Z" fill="#000000"/>
<path d="M 481.636 881.273 L 538.727 881.273 L 538.727 881.273 L 538.727 938.364 L 538.727 938.364 L 481.636 938.364 L 481.636 938.364 L 481.636 881.273 L 481.636 881.273 Z" fill="#000000"/>
<path d="M 538.727 881.273 L 595.818 881.273 L 595.818 881.273 L 595.818 938.364 L 595.818 938.364 L 538.727 938.364 L 538.727 938.364 L 538.727 881.273 L 538.727 881.273 Z" fill="#000000"/>
<path d="M 595.818 881.273 L 652.909 881.273 L 652.909 881.273 L 652.909 938.364 L 652.909 938.364 L 595.818 938.364 L 595.818 938.364 L 595.818 881.273 L 595.818 881.273 Z" fill="#000000"/>
<path d="M 652.909 881.273 L 710 881.273 L 710 881.273 L 710 909.818 Q 710 938.364 681.455 938.364 L 652.909 938.364 L 652.909 938.364 L 652.909 881.273 L 652.909 881.273 Z" fill="#000000"/>
<path d="M 795.636 881.273 L 824.182 881.273 L 824.182 881.273 L 824.182 938.364 L 824.182 938.364 L 795.636 938.364 Q 767.091 938.364 767.091 909.818 L 767.091 909.818 Q 767.091 881.273 795.636 881.273 Z" fill="#000000"/>
<path d="M 824.182 881.273 L 852.727 881.273 Q 881.273 881.273 881.273 909.818 L 881.273 938.364 L 881.273 938.364 L 824.182 938.364 L 824.182 938.364 L 824.182 881.273 L 824.182 881.273 Z" fill="#000000"/>
<path d="M 995.455 881.273 L 1052.545 881.273 L 1052.545 881.273 L 1052.545 938.364 L 1052.545 938.364 L 995.455 938.364 L 995.455 938.364 L 995.455 881.273 L 995.455 881.273 Z" fill="#000000"/>
<path d="M 1052.545 881.273 L 1081.091 881.273 Q 1109.636 881.273 1109.636 909.818 L 1109.636 938.364 L 1109.636 938.364 L 1052.545 938.364 L 1052.545 938.364 L 1052.545 881.273 L 1052.545 881.273 Z" fill="#000000"/>
<path d="M 1338 881.273 L 1395.091 881.273 L 1395.091 881.273 L 1395.091 938.364 L 1395.091 938.364 L 1338 938.364 L 1338 938.364 L 1338 881.273 L 1338 881.273 Z" fill="#000000"/>
<path d="M 1480.727 881.273 L 1480.727 881.273 Q 1509.273 881.273 1509.273 909.818 L 1509.273 938.364 L 1509.273 938.364 L 1452.182 938.364 L 1452.182 938.364 L 1452.182 909.818 Q 1452.182 881.273 1480.727 881.273 Z" fill="#000000"/>
<path d="M 1652 881.273 L 1652 881.273 Q 1680.545 881.273 1680.545 909.818 L 1680.545 938.364 L 1680.545 938.364 L 1623.455 938.364 L 1623.455 938.364 L 1623.455 909.818 Q 1623.455 881.273 1652 881.273 Z" fill="#000000"/>
<path d="M 1737.636 881.273 L 1794.727 881.273 L 1794.727 881.273 L 1794.727 938.364 L 1794.727 938.364 L 1766.182 938.364 Q 1737.636 938.364 1737.636 909.818 L 1737.636 881.273 L 1737.636 881.273 Z" fill="#000000"/>
<path d="M 1794.727 881.273 L 1823.273 881.273 Q 1851.818 881.273 1851.818 909.818 L 1851.818 938.364 L 1851.818 938.364 L 1794.727 938.364 L 1794.727 938.364 L 1794.727 881.273 L 1794.727 881.273 Z" fill="#000000"/>
<path d="M 253.273 938.364 L 310.364 938.364 L 310.364 938.364 L 310.364 995.455 L 310.364 995.455 L 253.273 995.455 L 253.273 995.455 L 253.273 938.364 L 253.273 938.364 Z" fill="#000000"/>
<path d="M 310.364 938.364 L 367.455 938.364 L 367.455 938.364 L 367.455 995.455 L 367.455 995.455 L 310.364 995.455 L 310.364 995.455 L 310.364 938.364 L 310.364 938.364 Z" fill="#000000"/>
<path d="M 424.545 938.364 L 481.636 938.364 L 481.636 938.364 L 481.636 995.455 L 481.636 995.455 L 424.545 995.455 L 424.545 995.455 L 424.545 938.364 L 424.545 938.364 Z" fill="#000000"/>
<circle cx="738.545" cy="966.909" r="28.545" fill="#000000"/>
<path d="M 824.182 938.364 L 881.273 938.364 L 881.273 938.364 L 881.273 966.909 Q 881.273 995.455 852.727 995.455 L 852.727 995.455 Q 824.182 995.455 824.182 966.909 L 824.182 938.364 L 824.182 938.364 Z" fill="#000000"/>
<path d="M 995.455 938.364 L 1052.545 938.364 L 1052.545 938.364 L 1052.545 995.455 L 1052.545 995.455 L 1024 995.455 Q 995.455 995.455 995.455 966.909 L 995.455 938.364 L 995.455 938.364 Z" fill="#000000"/>
<path d="M 1052.545 938.364 L 1109.636 938.364 L 1109.636 938.364 L 1109.636 966.909 Q 1109.636 995.455 1081.091 995.455 L 1052.545 995.455 L 1052.545 995.455 L 1052.545 938.364 L 1052.545 938.364 Z" fill="#000000"/>
<path d="M 1195.273 938.364 L 1223.818 938.364 L 1223.818 938.364 L 1223.818 995.455 L 1223.818 995.455 L 1195.273 995.455 Q 1166.727 995.455 1166.727 966.909 L 1166.727 966.909 Q 1166.727 938.364 1195.273 938.364 Z" fill="#000000"/>
<path d="M 1223.818 938.364 L 1280.909 938.364 L 1280.909 938.364 L 1280.909 995.455 L 1280.909 995.455 L 1223.818 995.455 L 1223.818 995.455 L 1223.818 938.364 L 1223.818 938.364 Z" fill="#000000"/>
<path d="M 1280.909 938.364 L 1338 938.364 L 1338 938.364 L 1338 995.455 L 1338 995.455 L 1280.909 995.455 L 1280.909 995.455 L 1280.909 938.364 L 1280.909 938.364 Z" fill="#000000"/>
<path d="M 1338 938.364 L 1395.091 938.364 L 1395.091 938.364 L 1395.091 995.455 L 1395.091 995.455 L 1338 995.455 L 1338 995.455 L 1338 938.364 L 1338 938.364 Z" fill="#000000"/>
<path d="M 1395.091 938.364 L 1452.182 938.364 L 1452.182 938.364 L 1452.182 995.455 L 1452.182 995.455 L 1395.091 995.455 L 1395.091 995.455 L 1395.091 938.364 L 1395.091 938.364 Z" fill="#000000"/>
<path d="M 1452.182 938.364 L 1509.273 938.364 L 1509.273 938.364 L 1509.273 966.909 Q 1509.273 995.455 1480.727 995.455 L 1452.182 995.455 L 1452.182 995.455 L 1452.182 938.364 L 1452.182 938.364 Z" fill="#000000"/>
<path d="M 1623.455 938.364 L 1680.545 938.364 L 1680.545 938.364 L 1680.545 995.455 L 1680.545 995.455 L 1623.455 995.455 L 1623.455 995.455 L 1623.455 938.364 L 1623.455 938.364 Z" fill="#000000"/>
<path d="M 1794.727 938.364 L 1851.818 938.364 L 1851.818 938.364 L 1851.818 995.455 L 1851.818 995.455 L 1794.727 995.455 L 1794.727 995.455 L 1794.727 938.364 L 1794.727 938.364 Z" fill="#000000"/>
<path d="M 224.727 995.455 L 253.273 995.455 L 253.273 995.455 L 253.273 1052.545 L 253.273 1052.545 L 196.182 1052.545 L 196.182 1052.545 L 196.182 1024 Q 196.182 995.455 224.727 995.455 Z" fill="#000000"/>
<path d="M 253.273 995.455 L 310.364 995.455 L 310.364 995.455 L 310.364 1052.545 L 310.364 1052.545 L 253.273 1052.545 L 253.273 1052.545 L 253.273 995.455 L 253.273 995.455 Z" fill="#000000"/>
<path d="M 310.364 995.455 L 367.455 995.455 L 367.455 995.455 L 367.455 1052.545 L 367.455 1052.545 L 310.364 1052.545 L 310.364 1052.545 L 310.364 995.455 L 310.364 995.455 Z" fill="#000000"/>
<path d="M 367.455 995.455 L 424.545 995.455 L 424.545 995.455 L 424.545 1052.545 L 424.545 1052.545 L 367.455 1052.545 L 367.455 1052.545 L 367.455 995.455 L 367.455 995.455 Z" fill="#000000"/>
<path d="M 424.545 995.455 L 481.636 995.455 L 481.636 995.455 L 481.636 1024 Q 481.636 1052.545 453.091 1052.545 L 424.545 1052.545 L 424.545 1052.545 L 424.545 995.455 L 424.545 995.455 Z" fill="#000000"/>
<circle cx="567.273" cy="1024" r="28.545" fill="#000000"/>
<circle cx="795.636" cy="1024" r="28.545" fill="#000000"/>
<path d="M 909.818 995.455 L 938.364 995.455 L 938.364 995.455 L 938.364 1052.545 L 938.364 1052.545 L 881.273 1052.545 L 881.273 1052.545 L 881.273 1024 Q 881.273 995.455 909.818 995.455 Z" fill="#000000"/>
<path d="M 938.364 995.455 L 966.909 995.455 Q 995.455 995.455 995.455 1024 L 995.455 1024 Q 995.455 1052.545 966.909 1052.545 L 938.364 1052.545 L 938.364 1052.545 L 938.364 995.455 L 938.364 995.455 Z" fill="#000000"/>
<path d="M 1395.091 995.455 L 1452.182 995.455 L 1452.182 995.455 L 1452.182 1052.545 L 1452.182 1052.545 L 1395.091 1052.545 L 1395.091 1052.545 L 1395.091 995.455 L 1395.091 995.455 Z" fill="#000000"/>
<path d="M 1537.818 995.455 L 1566.364 995.455 L 1566.364 995.455 L 1566.364 1052.545 L 1566.364 1052.545 L 1537.818 1052.545 Q 1509.273 1052.545 1509.273 1024 L 1509.273 1024 Q 1509.273 995.455 1537.818 995.455 Z" fill="#000000"/>
<path d="M 1566.364 995.455 L 1623.455 995.455 L 1623.455 995.455 L 1623.455 1052.545 L 1623.455 1052.545 L 1566.364 1052.545 L 1566.364 1052.545 L 1566.364 995.455 L 1566.364 995.455 Z" fill="#000000"/>
<path d="M 1623.455 995.455 L 1680.545 995.455 L 1680.545 995.455 L 1680.545 1052.545 L 1680.545 1052.545 L 1623.455 1052.545 L 1623.455 1052.545 L 1623.455 995.455 L 1623.455 995.455 Z" fill="#000000"/>
<path d="M 1766.182 995.455 L 1794.727 995.455 L 1794.727 995.455 L 1794.727 1052.545 L 1794.727 1052.545 L 1737.636 1052.545 L 1737.636 1052.545 L 1737.636 1024 Q 1737.636 995.455 1766.182 995.455 Z" fill="#000000"/>
<path d="M 1794.727 995.455 L 1851.818 995.455 L 1851.818 995.455 L 1851.818 1024 Q 1851.818 1052.545 1823.273 1052.545 L 1794.727 1052.545 L 1794.727 1052.545 L 1794.727 995.455 L 1794.727 995.455 Z" fill="#000000"/>
<path d="M 196.182 1052.545 L 253.273 1052.545 L 253.273 1052.545 L 253.273 1109.636 L 253.273 1109.636 L 196.182 1109.636 L 196.182 1109.636 L 196.182 1052.545 L 196.182 1052.545 Z" fill="#000000"/>
<circle cx="510.182" cy="1081.091" r="28.545" fill="#000000"/>
<path d="M 681.455 1052.545 L 710 1052.545 L 710 1052.545 L 710 1109.636 L 710 1109.636 L 681.455 1109.636 Q 652.909 1109.636 652.909 1081.091 L 652.909 1081.091 Q 652.909 1052.545 681.455 1052.545 Z" fill="#000000"/>
<path d="M 710 1052.545 L 738.545 1052.545 Q 767.091 1052.545 767.091 1081.091 L 767.091 1109.636 L 767.091 1109.636 L 710 1109.636 L 710 1109.636 L 710 1052.545 L 710 1052.545 Z" fill="#000000"/>
<path d="M 881.273 1052.545 L 938.364 1052.545 L 938.364 1052.545 L 938.364 1081.091 Q 938.364 1109.636 909.818 1109.636 L 909.818 1109.636 Q 881.273 1109.636 881.273 1081.091 L 881.273 1052.545 L 881.273 1052.545 Z" fill="#000000"/>
<circle cx="1081.091" cy="1081.091" r="28.545" fill="#000000"/>
<path d="M 1195.273 1052.545 L 1195.273 1052.545 Q 1223.818 1052.545 1223.818 1081.091 L 1223.818 1109.636 L 1223.818 1109.636 L 1166.727 1109.636 L 1166.727 1109.636 L 1166.727 1081.091 Q 1166.727 1052.545 1195.273 1052.545 Z" fill="#000000"/>
<path d="M 1366.545 1052.545 L 1395.091 1052.545 L 1395.091 1052.545 L 1395.091 1109.636 L 1395.091 1109.636 L 1338 1109.636 L 1338 1109.636 L 1338 1081.091 Q 1338 1052.545 1366.545 1052.545 Z" fill="#000000"/>
<rect x="1395.091" y="1052.545" width="57.091" height="57.091" fill="#000000"/>
<path d="M 1452.182 1052.545 L 1480.727 1052.545 Q 1509.273 1052.545 1509.273 1081.091 L 1509.273 1109.636 L 1509.273 1109.636 L 1452.182 1109.636 L 1452.182 1109.636 L 1452.182 1052.545 L 1452.182 1052.545 Z" fill="#000000"/>
<path d="M 1623.455 1052.545 L 1680.545 1052.545 L 1680.545 1052.545 L 1680.545 1109.636 L 1680.545 1109.636 L 1623.455 1109.636 L 1623.455 1109.636 L 1623.455 1052.545 L 1623.455 1052.545 Z" fill="#000000"/>
<path d="M 1737.636 1052.545 L 1794.727 1052.545 L 1794.727 1052.545 L 1794.727 1109.636 L 1794.727 1109.636 L 1737.636 1109.636 L 1737.636 1109.636 L 1737.636 1052.545 L 1737.636 1052.545 Z" fill="#000000"/>
<path d="M 196.182 1109.636 L 253.273 1109.636 L 253.273 1109.636 L 253.273 1166.727 L 253.273 1166.727 L 224.727 1166.727 Q 196.182 1166.727 196.182 1138.182 L 196.182 1109.636 L 196.182 1109.636 Z" fill="#000000"/>
<path d="M 253.273 1109.636 L 310.364 1109.636 L 310.364 1109.636 L 310.364 1166.727 L 310.364 1166.727 L 253.273 1166.727 L 253.273 1166.727 L 253.273 1109.636 L 253.273 1109.636 Z" fill="#000000"/>
<path d="M 310.364 1109.636 L 367.455 1109.636 L 367.455 1109.636 L 367.455 1166.727 L 367.455 1166.727 L 310.364 1166.727 L 310.364 1166.727 L 310.364 1109.636 L 310.364 1109.636 Z" fill="#000000"/>
<path d="M 367.455 1109.636 L 396 1109.636 Q 424.545 1109.636 424.545 1138.182 L 424.545 1166.727 L 424.545 1166.727 L 367.455 1166.727 L 367.455 1166.727 L 367.455 1109.636 L 367.455 1109.636 Z" fill="#000000"/>
<circle cx="567.273" cy="1138.182" r="28.545" fill="#000000"/>
<path d="M 710 1109.636 L 767.091 1109.636 L 767.091 1109.636 L 767.091 1166.727 L 767.091 1166.727 L 710 1166.727 L 710 1166.727 L 710 1109.636 L 710 1109.636 Z" fill="#000000"/>
<path d="M 767.091 1109.636 L 824.182 1109.636 L 824.182 1109.636 L 824.182 1166.727 L 824.182 1166.727 L 767.091 1166.727 L 767.091 1166.727 L 767.091 1109.636 L 767.091 1109.636 Z" fill="#000000"/>
<path d="M 824.182 1109.636 L 852.727 1109.636 Q 881.273 1109.636 881.273 1138.182 L 881.273 1138.182 Q 881.273 1166.727 852.727 1166.727 L 824.182 1166.727 L 824.182 1166.727 L 824.182 1109.636 L 824.182 1109.636 Z" fill="#000000"/>
<path d="M 1138.182 1109.636 L 1166.727 1109.636 L 1166.727 1109.636 L 1166.727 1166.727 L 1166.727 1166.727 L 1109.636 1166.727 L 1109.636 1166.727 L 1109.636 1138.182 Q 1109.636 1109.636 1138.182 1109.636 Z" fill="#000000"/>
<rect x="1166.727" y="1109.636" width="57.091" height="57.091" fill="#000000"/>
<path d="M 1223.818 1109.636 L 1280.909 1109.636 L 1280.909 1109.636 L 1280.909 1166.727 L 1280.909 1166.727 L 1223.818 1166.727 L 1223.818 1166.727 L 1223.818 1109.636 L 1223.818 1109.636 Z" fill="#000000"/>
<path d="M 1280.909 1109.636 L 1338 1109.636 L 1338 1109.636 L 1338 1166.727 L 1338 1166.727 L 1280.909 1166.727 L 1280.909 1166.727 L 1280.909 1109.636 L 1280.909 1109.636 Z" fill="#000000"/>
<path d="M 1338 1109.636 L 1395.091 1109.636 L 1395.091 1109.636 L 1395.091 1166.727 L 1395.091 1166.727 L 1338 1166.727 L 1338 1166.727 L 1338 1109.636 L 1338 1109.636 Z" fill="#000000"/>
<path d="M 1395.091 1109.636 L 1452.182 1109.636 L 1452.182 1109.636 L 1452.182 1166.727 L 1452.182 1166.727 L 1395.091 1166.727 L 1395.091 1166.727 L 1395.091 1109.636 L 1395.091 1109.636 Z" fill="#000000"/>
<path d="M 1452.182 1109.636 L 1509.273 1109.636 L 1509.273 1109.636 L 1509.273 1166.727 L 1509.273 1166.727 L 1452.182 1166.727 L 1452.182 1166.727 L 1452.182 1109.636 L 1452.182 1109.636 Z" fill="#000000"/>
<path d="M 1623.455 1109.636 L 1680.545 1109.636 L 1680.545 1109.636 L 1680.545 1166.727 L 1680.545 1166.727 L 1623.455 1166.727 L 1623.455 1166.727 L 1623.455 1109.636 L 1623.455 1109.636 Z" fill="#000000"/>
<path d="M 1737.636 1109.636 L 1794.727 1109.636 L 1794.727 1109.636 L 1794.727 1166.727 L 1794.727 1166.727 L 1766.182 1166.727 Q 1737.636 1166.727 1737.636 1138.182 L 1737.636 1109.636 L 1737.636 1109.636 Z" fill="#000000"/>
<path d="M 1794.727 1109.636 L 1823.273 1109.636 Q 1851.818 1109.636 1851.818 1138.182 L 1851.818 1166.727 L 1851.818 1166.727 L 1794.727 1166.727 L 1794.727 1166.727 L 1794.727 1109.636 L 1794.727 1109.636 Z" fill="#000000"/>
<path d="M 253.273 1166.727 L 310.364 1166.727 L 310.364 1166.727 L 310.364 1223.818 L 310.364 1223.818 L 281.818 1223.818 Q 253.273 1223.818 253.273 1195.273 L 253.273 1166.727 L 253.273 1166.727 Z" fill="#000000"/>
<rect x="310.364" y="1166.727" width="57.091" height="57.091" fill="#000000"/>
<path d="M 367.455 1166.727 L 424.545 1166.727 L 424.545 1166.727 L 424.545 1195.273 Q 424.545 1223.818 396 1223.818 L 367.455 1223.818 L 367.455 1223.818 L 367.455 1166.727 L 367.455 1166.727 Z" fill="#000000"/>
<path d="M 710 1166.727 L 767.091 1166.727 L 767.091 1166.727 L 767.091 1223.818 L 767.091 1223.818 L 738.545 1223.818 Q 710 1223.818 710 1195.273 L 710 1166.727 L 710 1166.727 Z" fill="#000000"/>
<path d="M 767.091 1166.727 L 824.182 1166.727 L 824.182 1166.727 L 824.182 1223.818 L 824.182 1223.818 L 767.091 1223.818 L 767.091 1223.818 L 767.091 1166.727 L 767.091 1166.727 Z" fill="#000000"/>
<circle cx="966.909" cy="1195.273" r="28.545" fill="#000000"/>
<path d="M 1081.091 1166.727 L 1109.636 1166.727 L 1109.636 1166.727 L 1109.636 1223.818 L 1109.636 1223.818 L 1052.545 1223.818 L 1052.545 1223.818 L 1052.545 1195.273 Q 1052.545 1166.727 1081.091 1166.727 Z" fill="#000000"/>
<rect x="1109.636" y="1166.727" width="57.091" height="57.091" fill="#000000"/>
<path d="M 1166.727 1166.727 L 1223.818 1166.727 L 1223.818 1166.727 L 1223.818 1223.818 L 1223.818 1223.818 L 1166.727 1223.818 L 1166.727 1223.818 L 1166.727 1166.727 L 1166.727 1166.727 Z" fill="#000000"/>
<path d="M 1223.818 1166.727 L 1280.909 1166.727 L 1280.909 1166.727 L 1280.909 1195.273 Q 1280.909 1223.818 1252.364 1223.818 L 1223.818 1223.818 L 1223.818 1223.818 L 1223.818 1166.727 L 1223.818 1166.727 Z" fill="#000000"/>
<path d="M 1452.182 1166.727 L 1509.273 1166.727 L 1509.273 1166.727 L 1509.273 1223.818 L 1509.273 1223.818 L 1452.182 1223.818 L 1452.182 1223.818 L 1452.182 1166.727 L 1452.182 1166.727 Z" fill="#000000"/>
<path d="M 1623.455 1166.727 L 1680.545 1166.727 L 1680.545 1166.727 L 1680.545 1223.818 L 1680.545 1223.818 L 1652 1223.818 Q 1623.455 1223.818 1623.455 1195.273 L 1623.455 1166.727 L 1623.455 1166.727 Z" fill="#000000"/>
<path d="M 1680.545 1166.727 L 1709.091 1166.727 Q 1737.636 1166.727 1737.636 1195.273 L 1737.636 1195.273 Q 1737.636 1223.818 1709.091 1223.818 L 1680.545 1223.818 L 1680.545 1223.818 L 1680.545 1166.727 L 1680.545 1166.727 Z" fill="#000000"/>
<path d="M 1794.727 1166.727 L 1851.818 1166.727 L 1851.818 1166.727 L 1851.818 1223.818 L 1851.818 1223.818 L 1794.727 1223.818 L 1794.727 1223.818 L 1794.727 1166.727 L 1794.727 1166.727 Z" fill="#000000"/>
<circle cx="224.727" cy="1252.364" r="28.545" fill="#000000"/>
<path d="M 310.364 1223.818 L 367.455 1223.818 L 367.455 1223.818 L 367.455 1252.364 Q 367.455 1280.909 338.909 1280.909 L 338.909 1280.909 Q 310.364 1280.909 310.364 1252.364 L 310.364 1223.818 L 310.364 1223.818 Z" fill="#000000"/>
<path d="M 567.273 1223.818 L 595.818 1223.818 L 595.818 1223.818 L 595.818 1280.909 L 595.818 1280.909 L 567.273 1280.909 Q 538.727 1280.909 538.727 1252.364 L 538.727 1252.364 Q 538.727 1223.818 567.273 1223.818 Z" fill="#000000"/>
<path d="M 595.818 1223.818 L 652.909 1223.818 L 652.909 1223.818 L 652.909 1280.909 L 652.909 1280.909 L 595.818 1280.909 L 595.818 1280.909 L 595.818 1223.818 L 595.818 1223.818 Z" fill="#000000"/>
<path d="M 652.909 1223.818 L 681.455 1223.818 Q 710 1223.818 710 1252.364 L 710 1280.909 L 710 1280.909 L 652.909 1280.909 L 652.909 1280.909 L 652.909 1223.818 L 652.909 1223.818 Z" fill="#000000"/>
<path d="M 767.091 1223.818 L 824.182 1223.818 L 824.182 1223.818 L 824.182 1280.909 L 824.182 1280.909 L 795.636 1280.909 Q 767.091 1280.909 767.091 1252.364 L 767.091 1223.818 L 767.091 1223.818 Z" fill="#000000"/>
<path d="M 824.182 1223.818 L 881.273 1223.818 L 881.273 1223.818 L 881.273 1280.909 L 881.273 1280.909 L 824.182 1280.909 L 824.182 1280.909 L 824.182 1223.818 L 824.182 1223.818 Z" fill="#000000"/>
<path d="M 881.273 1223.818 L 909.818 1223.818 Q 938.364 1223.818 938.364 1252.364 L 938.364 1252.364 Q 938.364 1280.909 909.818 1280.909 L 881.273 1280.909 L 881.273 1280.909 L 881.273 1223.818 L 881.273 1223.818 Z" fill="#000000"/>
<path d="M 1024 1223.818 L 1052.545 1223.818 L 1052.545 1223.818 L 1052.545 1280.909 L 1052.545 1280.909 L 995.455 1280.909 L 995.455 1280.909 L 995.455 1252.364 Q 995.455 1223.818 1024 1223.818 Z" fill="#000000"/>
<path d="M 1052.545 1223.818 L 1109.636 1223.818 L 1109.636 1223.818 L 1109.636 1280.909 L 1109.636 1280.909 L 1052.545 1280.909 L 1052.545 1280.909 L 1052.545 1223.818 L 1052.545 1223.818 Z" fill="#000000"/>
<path d="M 1109.636 1223.818 L 1166.727 1223.818 L 1166.727 1223.818 L 1166.727 1280.909 L 1166.727 1280.909 L 1109.636 1280.909 L 1109.636 1280.909 L 1109.636 1223.818 L 1109.636 1223.818 Z" fill="#000000"/>
<path d="M 1452.182 1223.818 L 1509.273 1223.818 L 1509.273 1223.818 L 1509.273 1252.364 Q 1509.273 1280.909 1480.727 1280.909 L 1480.727 1280.909 Q 1452.182 1280.909 1452.182 1252.364 L 1452.182 1223.818 L 1452.182 1223.818 Z" fill="#000000"/>
<path d="M 1766.182 1223.818 L 1794.727 1223.818 L 1794.727 1223.818 L 1794.727 1280.909 L 1794.727 1280.909 L 1737.636 1280.909 L 1737.636 1280.909 L 1737.636 1252.364 Q 1737.636 1223.818 1766.182 1223.818 Z" fill="#000000"/>
<path d="M 1794.727 1223.818 L 1851.818 1223.818 L 1851.818 1223.818 L 1851.818 1252.364 Q 1851.818 1280.909 1823.273 1280.909 L 1794.727 1280.909 L 1794.727 1280.909 L 1794.727 1223.818 L 1794.727 1223.818 Z" fill="#000000"/>
<circle cx="281.818" cy="1309.455" r="28.545" fill="#000000"/>
<path d="M 652.909 1280.909 L 710 1280.909 L 710 1280.909 L 710 1338 L 710 1338 L 652.909 1338 L 652.909 1338 L 652.909 1280.909 L 652.909 1280.909 Z" fill="#000000"/>
<path d="M 710 1280.909 L 738.545 1280.909 Q 767.091 1280.909 767.091 1309.455 L 767.091 1309.455 Q 767.091 1338 738.545 1338 L 710 1338 L 710 1338 L 710 1280.909 L 710 1280.909 Z" fill="#000000"/>
<path d="M 824.182 1280.909 L 881.273 1280.909 L 881.273 1280.909 L 881.273 1338 L 881.273 1338 L 824.182 1338 L 824.182 1338 L 824.182 1280.909 L 824.182 1280.909 Z" fill="#000000"/>
<path d="M 966.909 1280.909 L 995.455 1280.909 L 995.455 1280.909 L 995.455 1338 L 995.455 1338 L 966.909 1338 Q 938.364 1338 938.364 1309.455 L 938.364 1309.455 Q 938.364 1280.909 966.909 1280.909 Z" fill="#000000"/>
<path d="M 995.455 1280.909 L 1052.545 1280.909 L 1052.545 1280.909 L 1052.545 1338 L 1052.545 1338 L 995.455 1338 L 995.455 1338 L 995.455 1280.909 L 995.455 1280.909 Z" fill="#000000"/>
<path d="M 1109.636 1280.909 L 1166.727 1280.909 L 1166.727 1280.909 L 1166.727 1338 L 1166.727 1338 L 1109.636 1338 L 1109.636 1338 L 1109.636 1280.909 L 1109.636 1280.909 Z" fill="#000000"/>
<path d="M 1166.727 1280.909 L 1195.273 1280.909 Q 1223.818 1280.909 1223.818 1309.455 L 1223.818 1338 L 1223.818 1338 L 1166.727 1338 L 1166.727 1338 L 1166.727 1280.909 L 1166.727 1280.909 Z" fill="#000000"/>
<path d="M 1423.636 1280.909 L 1423.636 1280.909 Q 1452.182 1280.909 1452.182 1309.455 L 1452.182 1338 L 1452.182 1338 L 1395.091 1338 L 1395.091 1338 L 1395.091 1309.455 Q 1395.091 1280.909 1423.636 1280.909 Z" fill="#000000"/>
<circle cx="1652" cy="1309.455" r="28.545" fill="#000000"/>
<path d="M 1737.636 1280.909 L 1794.727 1280.909 L 1794.727 1280.909 L 1794.727 1309.455 Q 1794.727 1338 1766.182 1338 L 1766.182 1338 Q 1737.636 1338 1737.636 1309.455 L 1737.636 1280.909 L 1737.636 1280.909 Z" fill="#000000"/>
<circle cx="224.727" cy="1366.545" r="28.545" fill="#000000"/>
<path d="M 338.909 1338 L 367.455 1338 L 367.455 1338 L 367.455 1395.091 L 367.455 1395.091 L 338.909 1395.091 Q 310.364 1395.091 310.364 1366.545 L 310.364 1366.545 Q 310.364 1338 338.909 1338 Z" fill="#000000"/>
<path d="M 367.455 1338 L 424.545 1338 L 424.545 1338 L 424.545 1395.091 L 424.545 1395.091 L 367.455 1395.091 L 367.455 1395.091 L 367.455 1338 L 367.455 1338 Z" fill="#000000"/>
<path d="M 424.545 1338 L 453.091 1338 Q 481.636 1338 481.636 1366.545 L 481.636 1366.545 Q 481.636 1395.091 453.091 1395.091 L 424.545 1395.091 L 424.545 1395.091 L 424.545 1338 L 424.545 1338 Z" fill="#000000"/>
<circle cx="567.273" cy="1366.545" r="28.545" fill="#000000"/>
<path d="M 652.909 1338 L 710 1338 L 710 1338 L 710 1395.091 L 710 1395.091 L 652.909 1395.091 L 652.909 1395.091 L 652.909 1338 L 652.909 1338 Z" fill="#000000"/>
<path d="M 824.182 1338 L 881.273 1338 L 881.273 1338 L 881.273 1366.545 Q 881.273 1395.091 852.727 1395.091 L 852.727 1395.091 Q 824.182 1395.091 824.182 1366.545 L 824.182 1338 L 824.182 1338 Z" fill="#000000"/>
<path d="M 995.455 1338 L 1052.545 1338 L 1052.545 1338 L 1052.545 1395.091 L 1052.545 1395.091 L 995.455 1395.091 L 995.455 1395.091 L 995.455 1338 L 995.455 1338 Z" fill="#000000"/>
<path d="M 1052.545 1338 L 1109.636 1338 L 1109.636 1338 L 1109.636 1395.091 L 1109.636 1395.091 L 1052.545 1395.091 L 1052.545 1395.091 L 1052.545 1338 L 1052.545 1338 Z" fill="#000000"/>
<path d="M 1109.636 1338 L 1166.727 1338 L 1166.727 1338 L 1166.727 1395.091 L 1166.727 1395.091 L 1109.636 1395.091 L 1109.636 1395.091 L 1109.636 1338 L 1109.636 1338 Z" fill="#000000"/>
<path d="M 1166.727 1338 L 1223.818 1338 L 1223.818 1338 L 1223.818 1366.545 Q 1223.818 1395.091 1195.273 1395.091 L 1166.727 1395.091 L 1166.727 1395.091 L 1166.727 1338 L 1166.727 1338 Z" fill="#000000"/>
<path d="M 1366.545 1338 L 1395.091 1338 L 1395.091 1338 L 1395.091 1395.091 L 1395.091 1395.091 L 1338 1395.091 L 1338 1395.091 L 1338 1366.545 Q 1338 1338 1366.545 1338 Z" fill="#000000"/>
<path d="M 1395.091 1338 L 1452.182 1338 L 1452.182 1338 L 1452.182 1395.091 L 1452.182 1395.091 L 1395.091 1395.091 L 1395.091 1395.091 L 1395.091 1338 L 1395.091 1338 Z" fill="#000000"/>
<path d="M 1452.182 1338 L 1509.273 1338 L 1509.273 1338 L 1509.273 1395.091 L 1509.273 1395.091 L 1452.182 1395.091 L 1452.182 1395.091 L 1452.182 1338 L 1452.182 1338 Z" fill="#000000"/>
<path d="M 1509.273 1338 L 1566.364 1338 L 1566.364 1338 L 1566.364 1395.091 L 1566.364 1395.091 L 1509.273 1395.091 L 1509.273 1395.091 L 1509.273 1338 L 1509.273 1338 Z" fill="#000000"/>
<path d="M 1566.364 1338 L 1594.909 1338 Q 1623.455 1338 1623.455 1366.545 L 1623.455 1395.091 L 1623.455 1395.091 L 1566.364 1395.091 L 1566.364 1395.091 L 1566.364 1338 L 1566.364 1338 Z" fill="#000000"/>
<path d="M 652.909 1395.091 L 710 1395.091 L 710 1395.091 L 710 1452.182 L 710 1452.182 L 681.455 1452.182 Q 652.909 1452.182 652.909 1423.636 L 652.909 1395.091 L 652.909 1395.091 Z" fill="#000000"/>
<path d="M 710 1395.091 L 738.545 1395.091 Q 767.091 1395.091 767.091 1423.636 L 767.091 1452.182 L 767.091 1452.182 L 710 1452.182 L 710 1452.182 L 710 1395.091 L 710 1395.091 Z" fill="#000000"/>
<circle cx="909.818" cy="1423.636" r="28.545" fill="#000000"/>
<path d="M 995.455 1395.091 L 1052.545 1395.091 L 1052.545 1395.091 L 1052.545 1452.182 L 1052.545 1452.182 L 1024 1452.182 Q 995.455 1452.182 995.455 1423.636 L 995.455 1395.091 L 995.455 1395.091 Z" fill="#000000"/>
<path d="M 1052.545 1395.091 L 1109.636 1395.091 L 1109.636 1395.091 L 1109.636 1423.636 Q 1109.636 1452.182 1081.091 1452.182 L 1052.545 1452.182 L 1052.545 1452.182 L 1052.545 1395.091 L 1052.545 1395.091 Z" fill="#000000"/>
<path d="M 1252.364 1395.091 L 1252.364 1395.091 Q 1280.909 1395.091 1280.909 1423.636 L 1280.909 1452.182 L 1280.909 1452.182 L 1223.818 1452.182 L 1223.818 1452.182 L 1223.818 1423.636 Q 1223.818 1395.091 1252.364 1395.091 Z" fill="#000000"/>
<path d="M 1338 1395.091 L 1395.091 1395.091 L 1395.091 1395.091 L 1395.091 1452.182 L 1395.091 1452.182 L 1338 1452.182 L 1338 1452.182 L 1338 1395.091 L 1338 1395.091 Z" fill="#000000"/>
<path d="M 1566.364 1395.091 L 1623.455 1395.091 L 1623.455 1395.091 L 1623.455 1452.182 L 1623.455 1452.182 L 1566.364 1452.182 L 1566.364 1452.182 L 1566.364 1395.091 L 1566.364 1395.091 Z" fill="#000000"/>
<path d="M 1709.091 1395.091 L 1737.636 1395.091 L 1737.636 1395.091 L 1737.636 1452.182 L 1737.636 1452.182 L 1709.091 1452.182 Q 1680.545 1452.182 1680.545 1423.636 L 1680.545 1423.636 Q 1680.545 1395.091 1709.091 1395.091 Z" fill="#000000"/>
<path d="M 1737.636 1395.091 L 1794.727 1395.091 L 1794.727 1395.091 L 1794.727 1452.182 L 1794.727 1452.182 L 1737.636 1452.182 L 1737.636 1452.182 L 1737.636 1395.091 L 1737.636 1395.091 Z" fill="#000000"/>
<path d="M 1794.727 1395.091 L 1823.273 1395.091 Q 1851.818 1395.091 1851.818 1423.636 L 1851.818 1452.182 L 1851.818 1452.182 L 1794.727 1452.182 L 1794.727 1452.182 L 1794.727 1395.091 L 1794.727 1395.091 Z" fill="#000000"/>
<path d="M 710 1452.182 L 767.091 1452.182 L 767.091 1452.182 L 767.091 1509.273 L 767.091 1509.273 L 738.545 1509.273 Q 710 1509.273 710 1480.727 L 710 1452.182 L 710 1452.182 Z" fill="#000000"/>
<path d="M 767.091 1452.182 L 824.182 1452.182 L 824.182 1452.182 L 824.182 1509.273 L 824.182 1509.273 L 767.091 1509.273 L 767.091 1509.273 L 767.091 1452.182 L 767.091 1452.182 Z" fill="#000000"/>
<path d="M 824.182 1452.182 L 852.727 1452.182 Q 881.273 1452.182 881.273 1480.727 L 881.273 1509.273 L 881.273 1509.273 L 824.182 1509.273 L 824.182 1509.273 L 824.182 1452.182 L 824.182 1452.182 Z" fill="#000000"/>
<circle cx="966.909" cy="1480.727" r="28.545" fill="#000000"/>
<path d="M 1138.182 1452.182 L 1138.182 1452.182 Q 1166.727 1452.182 1166.727 1480.727 L 1166.727 1509.273 L 1166.727 1509.273 L 1109.636 1509.273 L 1109.636 1509.273 L 1109.636 1480.727 Q 1109.636 1452.182 1138.182 1452.182 Z" fill="#000000"/>
<path d="M 1223.818 1452.182 L 1280.909 1452.182 L 1280.909 1452.182 L 1280.909 1509.273 L 1280.909 1509.273 L 1223.818 1509.273 L 1223.818 1509.273 L 1223.818 1452.182 L 1223.818 1452.182 Z" fill="#000000"/>
<path d="M 1280.909 1452.182 L 1338 1452.182 L 1338 1452.182 L 1338 1509.273 L 1338 1509.273 L 1280.909 1509.273 L 1280.909 1509.273 L 1280.909 1452.182 L 1280.909 1452.182 Z" fill="#000000"/>
<path d="M 1338 1452.182 L 1395.091 1452.182 L 1395.091 1452.182 L 1395.091 1509.273 L 1395.091 1509.273 L 1338 1509.273 L 1338 1509.273 L 1338 1452.182 L 1338 1452.182 Z" fill="#000000"/>
<circle cx="1480.727" cy="1480.727" r="28.545" fill="#000000"/>
<path d="M 1566.364 1452.182 L 1623.455 1452.182 L 1623.455 1452.182 L 1623.455 1509.273 L 1623.455 1509.273 L 1566.364 1509.273 L 1566.364 1509.273 L 1566.364 1452.182 L 1566.364 1452.182 Z" fill="#000000"/>
<path d="M 1623.455 1452.182 L 1652 1452.182 Q 1680.545 1452.182 1680.545 1480.727 L 1680.545 1509.273 L 1680.545 1509.273 L 1623.455 1509.273 L 1623.455 1509.273 L 1623.455 1452.182 L 1623.455 1452.182 Z" fill="#000000"/>
<path d="M 1737.636 1452.182 L 1794.727 1452.182 L 1794.727 1452.182 L 1794.727 1509.273 L 1794.727 1509.273 L 1766.182 1509.273 Q 1737.636 1509.273 1737.636 1480.727 L 1737.636 1452.182 L 1737.636 1452.182 Z" fill="#000000"/>
<path d="M 1794.727 1452.182 L 1851.818 1452.182 L 1851.818 1452.182 L 1851.818 1509.273 L 1851.818 1509.273 L 1794.727 1509.273 L 1794.727 1509.273 L 1794.727 1452.182 L 1794.727 1452.182 Z" fill="#000000"/>
<path d="M 824.182 1509.273 L 881.273 1509.273 L 881.273 1509.273 L 881.273 1566.364 L 881.273 1566.364 L 824.182 1566.364 L 824.182 1566.364 L 824.182 1509.273 L 824.182 1509.273 Z" fill="#000000"/>
<path d="M 1081.091 1509.273 L 1109.636 1509.273 L 1109.636 1509.273 L 1109.636 1566.364 L 1109.636 1566.364 L 1081.091 1566.364 Q 1052.545 1566.364 1052.545 1537.818 L 1052.545 1537.818 Q 1052.545 1509.273 1081.091 1509.273 Z" fill="#000000"/>
<rect x="1109.636" y="1509.273" width="57.091" height="57.091" fill="#000000"/>
<path d="M 1166.727 1509.273 L 1223.818 1509.273 L 1223.818 1509.273 L 1223.818 1566.364 L 1223.818 1566.364 L 1166.727 1566.364 L 1166.727 1566.364 L 1166.727 1509.273 L 1166.727 1509.273 Z" fill="#000000"/>
<path d="M 1223.818 1509.273 L 1280.909 1509.273 L 1280.909 1509.273 L 1280.909 1537.818 Q 1280.909 1566.364 1252.364 1566.364 L 1223.818 1566.364 L 1223.818 1566.364 L 1223.818 1509.273 L 1223.818 1509.273 Z" fill="#000000"/>
<path d="M 1338 1509.273 L 1395.091 1509.273 L 1395.091 1509.273 L 1395.091 1566.364 L 1395.091 1566.364 L 1338 1566.364 L 1338 1566.364 L 1338 1509.273 L 1338 1509.273 Z" fill="#000000"/>
<path d="M 1566.364 1509.273 L 1623.455 1509.273 L 1623.455 1509.273 L 1623.455 1566.364 L 1623.455 1566.364 L 1566.364 1566.364 L 1566.364 1566.364 L 1566.364 1509.273 L 1566.364 1509.273 Z" fill="#000000"/>
<path d="M 1623.455 1509.273 L 1680.545 1509.273 L 1680.545 1509.273 L 1680.545 1537.818 Q 1680.545 1566.364 1652 1566.364 L 1623.455 1566.364 L 1623.455 1566.364 L 1623.455 1509.273 L 1623.455 1509.273 Z" fill="#000000"/>
<path d="M 1794.727 1509.273 L 1851.818 1509.273 L 1851.818 1509.273 L 1851.818 1537.818 Q 1851.818 1566.364 1823.273 1566.364 L 1823.273 1566.364 Q 1794.727 1566.364 1794.727 1537.818 L 1794.727 1509.273 L 1794.727 1509.273 Z" fill="#000000"/>
<path d="M 681.455 1566.364 L 710 1566.364 L 710 1566.364 L 710 1623.455 L 710 1623.455 L 681.455 1623.455 Q 652.909 1623.455 652.909 1594.909 L 652.909 1594.909 Q 652.909 1566.364 681.455 1566.364 Z" fill="#000000"/>
<path d="M 710 1566.364 L 767.091 1566.364 L 767.091 1566.364 L 767.091 1623.455 L 767.091 1623.455 L 710 1623.455 L 710 1623.455 L 710 1566.364 L 710 1566.364 Z" fill="#000000"/>
<path d="M 767.091 1566.364 L 824.182 1566.364 L 824.182 1566.364 L 824.182 1623.455 L 824.182 1623.455 L 767.091 1623.455 L 767.091 1623.455 L 767.091 1566.364 L 767.091 1566.364 Z" fill="#000000"/>
<rect x="824.182" y="1566.364" width="57.091" height="57.091" fill="#000000"/>
<path d="M 881.273 1566.364 L 909.818 1566.364 Q 938.364 1566.364 938.364 1594.909 L 938.364 1623.455 L 938.364 1623.455 L 881.273 1623.455 L 881.273 1623.455 L 881.273 1566.364 L 881.273 1566.364 Z" fill="#000000"/>
<path d="M 1109.636 1566.364 L 1166.727 1566.364 L 1166.727 1566.364 L 1166.727 1623.455 L 1166.727 1623.455 L 1109.636 1623.455 L 1109.636 1623.455 L 1109.636 1566.364 L 1109.636 1566.364 Z" fill="#000000"/>
<path d="M 1338 1566.364 L 1395.091 1566.364 L 1395.091 1566.364 L 1395.091 1623.455 L 1395.091 1623.455 L 1338 1623.455 L 1338 1623.455 L 1338 1566.364 L 1338 1566.364 Z" fill="#000000"/>
<path d="M 1395.091 1566.364 L 1452.182 1566.364 L 1452.182 1566.364 L 1452.182 1623.455 L 1452.182 1623.455 L 1395.091 1623.455 L 1395.091 1623.455 L 1395.091 1566.364 L 1395.091 1566.364 Z" fill="#000000"/>
<path d="M 1452.182 1566.364 L 1509.273 1566.364 L 1509.273 1566.364 L 1509.273 1623.455 L 1509.273 1623.455 L 1452.182 1623.455 L 1452.182 1623.455 L 1452.182 1566.364 L 1452.182 1566.364 Z" fill="#000000"/>
<path d="M 1509.273 1566.364 L 1566.364 1566.364 L 1566.364 1566.364 L 1566.364 1623.455 L 1566.364 1623.455 L 1509.273 1623.455 L 1509.273 1623.455 L 1509.273 1566.364 L 1509.273 1566.364 Z" fill="#000000"/>
<path d="M 1566.364 1566.364 L 1623.455 1566.364 L 1623.455 1566.364 L 1623.455 1623.455 L 1623.455 1623.455 L 1566.364 1623.455 L 1566.364 1623.455 L 1566.364 1566.364 L 1566.364 1566.364 Z" fill="#000000"/>
<circle cx="1766.182" cy="1594.909" r="28.545" fill="#000000"/>
<path d="M 824.182 1623.455 L 881.273 1623.455 L 881.273 1623.455 L 881.273 1680.545 L 881.273 1680.545 L 824.182 1680.545 L 824.182 1680.545 L 824.182 1623.455 L 824.182 1623.455 Z" fill="#000000"/>
<rect x="881.273" y="1623.455" width="57.091" height="57.091" fill="#000000"/>
<path d="M 938.364 1623.455 L 966.909 1623.455 Q 995.455 1623.455 995.455 1652 L 995.455 1680.545 L 995.455 1680.545 L 938.364 1680.545 L 938.364 1680.545 L 938.364 1623.455 L 938.364 1623.455 Z" fill="#000000"/>
<path d="M 1109.636 1623.455 L 1166.727 1623.455 L 1166.727 1623.455 L 1166.727 1680.545 L 1166.727 1680.545 L 1138.182 1680.545 Q 1109.636 1680.545 1109.636 1652 L 1109.636 1623.455 L 1109.636 1623.455 Z" fill="#000000"/>
<path d="M 1166.727 1623.455 L 1223.818 1623.455 L 1223.818 1623.455 L 1223.818 1680.545 L 1223.818 1680.545 L 1166.727 1680.545 L 1166.727 1680.545 L 1166.727 1623.455 L 1166.727 1623.455 Z" fill="#000000"/>
<path d="M 1223.818 1623.455 L 1252.364 1623.455 Q 1280.909 1623.455 1280.909 1652 L 1280.909 1680.545 L 1280.909 1680.545 L 1223.818 1680.545 L 1223.818 1680.545 L 1223.818 1623.455 L 1223.818 1623.455 Z" fill="#000000"/>
<path d="M 1338 1623.455 L 1395.091 1623.455 L 1395.091 1623.455 L 1395.091 1680.545 L 1395.091 1680.545 L 1338 1680.545 L 1338 1680.545 L 1338 1623.455 L 1338 1623.455 Z" fill="#000000"/>
<path d="M 1566.364 1623.455 L 1623.455 1623.455 L 1623.455 1623.455 L 1623.455 1680.545 L 1623.455 1680.545 L 1566.364 1680.545 L 1566.364 1680.545 L 1566.364 1623.455 L 1566.364 1623.455 Z" fill="#000000"/>
<circle cx="1709.091" cy="1652" r="28.545" fill="#000000"/>
<path d="M 681.455 1680.545 L 710 1680.545 L 710 1680.545 L 710 1737.636 L 710 1737.636 L 681.455 1737.636 Q 652.909 1737.636 652.909 1709.091 L 652.909 1709.091 Q 652.909 1680.545 681.455 1680.545 Z" fill="#000000"/>
<path d="M 710 1680.545 L 738.545 1680.545 Q 767.091 1680.545 767.091 1709.091 L 767.091 1709.091 Q 767.091 1737.636 738.545 1737.636 L 710 1737.636 L 710 1737.636 L 710 1680.545 L 710 1680.545 Z" fill="#000000"/>
<path d="M 824.182 1680.545 L 881.273 1680.545 L 881.273 1680.545 L 881.273 1737.636 L 881.273 1737.636 L 852.727 1737.636 Q 824.182 1737.636 824.182 1709.091 L 824.182 1680.545 L 824.182 1680.545 Z" fill="#000000"/>
<path d="M 881.273 1680.545 L 938.364 1680.545 L 938.364 1680.545 L 938.364 1737.636 L 938.364 1737.636 L 881.273 1737.636 L 881.273 1737.636 L 881.273 1680.545 L 881.273 1680.545 Z" fill="#000000"/>
<path d="M 938.364 1680.545 L 995.455 1680.545 L 995.455 1680.545 L 995.455 1737.636 L 995.455 1737.636 L 938.364 1737.636 L 938.364 1737.636 L 938.364 1680.545 L 938.364 1680.545 Z" fill="#000000"/>
<path d="M 1223.818 1680.545 L 1280.909 1680.545 L 1280.909 1680.545 L 1280.909 1709.091 Q 1280.909 1737.636 1252.364 1737.636 L 1252.364 1737.636 Q 1223.818 1737.636 1223.818 1709.091 L 1223.818 1680.545 L 1223.818 1680.545 Z" fill="#000000"/>
<path d="M 1338 1680.545 L 1395.091 1680.545 L 1395.091 1680.545 L 1395.091 1737.636 L 1395.091 1737.636 L 1338 1737.636 L 1338 1737.636 L 1338 1680.545 L 1338 1680.545 Z" fill="#000000"/>
<path d="M 1537.818 1680.545 L 1566.364 1680.545 L 1566.364 1680.545 L 1566.364 1737.636 L 1566.364 1737.636 L 1537.818 1737.636 Q 1509.273 1737.636 1509.273 1709.091 L 1509.273 1709.091 Q 1509.273 1680.545 1537.818 1680.545 Z" fill="#000000"/>
<path d="M 1566.364 1680.545 L 1623.455 1680.545 L 1623.455 1680.545 L 1623.455 1737.636 L 1623.455 1737.636 L 1566.364 1737.636 L 1566.364 1737.636 L 1566.364 1680.545 L 1566.364 1680.545 Z" fill="#000000"/>
<path d="M 1623.455 1680.545 L 1652 1680.545 Q 1680.545 1680.545 1680.545 1709.091 L 1680.545 1709.091 Q 1680.545 1737.636 1652 1737.636 L 1623.455 1737.636 L 1623.455 1737.636 L 1623.455 1680.545 L 1623.455 1680.545 Z" fill="#000000"/>
<circle cx="1823.273" cy="1709.091" r="28.545" fill="#000000"/>
<circle cx="795.636" cy="1766.182" r="28.545" fill="#000000"/>
<path d="M 938.364 1737.636 L 995.455 1737.636 L 995.455 1737.636 L 995.455 1766.182 Q 995.455 1794.727 966.909 1794.727 L 966.909 1794.727 Q 938.364 1794.727 938.364 1766.182 L 938.364 1737.636 L 938.364 1737.636 Z" fill="#000000"/>
<path d="M 1081.091 1737.636 L 1109.636 1737.636 L 1109.636 1737.636 L 1109.636 1794.727 L 1109.636 1794.727 L 1052.545 1794.727 L 1052.545 1794.727 L 1052.545 1766.182 Q 1052.545 1737.636 1081.091 1737.636 Z" fill="#000000"/>
<path d="M 1109.636 1737.636 L 1166.727 1737.636 L 1166.727 1737.636 L 1166.727 1794.727 L 1166.727 1794.727 L 1109.636 1794.727 L 1109.636 1794.727 L 1109.636 1737.636 L 1109.636 1737.636 Z" fill="#000000"/>
<path d="M 1166.727 1737.636 L 1195.273 1737.636 Q 1223.818 1737.636 1223.818 1766.182 L 1223.818 1766.182 Q 1223.818 1794.727 1195.273 1794.727 L 1166.727 1794.727 L 1166.727 1794.727 L 1166.727 1737.636 L 1166.727 1737.636 Z" fill="#000000"/>
<path d="M 1309.455 1737.636 L 1338 1737.636 L 1338 1737.636 L 1338 1794.727 L 1338 1794.727 L 1280.909 1794.727 L 1280.909 1794.727 L 1280.909 1766.182 Q 1280.909 1737.636 1309.455 1737.636 Z" fill="#000000"/>
<rect x="1338" y="1737.636" width="57.091" height="57.091" fill="#000000"/>
<path d="M 1395.091 1737.636 L 1452.182 1737.636 L 1452.182 1737.636 L 1452.182 1794.727 L 1452.182 1794.727 L 1395.091 1794.727 L 1395.091 1794.727 L 1395.091 1737.636 L 1395.091 1737.636 Z" fill="#000000"/>
<path d="M 1452.182 1737.636 L 1480.727 1737.636 Q 1509.273 1737.636 1509.273 1766.182 L 1509.273 1794.727 L 1509.273 1794.727 L 1452.182 1794.727 L 1452.182 1794.727 L 1452.182 1737.636 L 1452.182 1737.636 Z" fill="#000000"/>
<path d="M 1766.182 1737.636 L 1766.182 1737.636 Q 1794.727 1737.636 1794.727 1766.182 L 1794.727 1794.727 L 1794.727 1794.727 L 1737.636 1794.727 L 1737.636 1794.727 L 1737.636 1766.182 Q 1737.636 1737.636 1766.182 1737.636 Z" fill="#000000"/>
<circle cx="681.455" cy="1823.273" r="28.545" fill="#000000"/>
<path d="M 1052.545 1794.727 L 1109.636 1794.727 L 1109.636 1794.727 L 1109.636 1851.818 L 1109.636 1851.818 L 1081.091 1851.818 Q 1052.545 1851.818 1052.545 1823.273 L 1052.545 1794.727 L 1052.545 1794.727 Z" fill="#000000"/>
<path d="M 1109.636 1794.727 L 1166.727 1794.727 L 1166.727 1794.727 L 1166.727 1823.273 Q 1166.727 1851.818 1138.182 1851.818 L 1109.636 1851.818 L 1109.636 1851.818 L 1109.636 1794.727 L 1109.636 1794.727 Z" fill="#000000"/>
<path d="M 1280.909 1794.727 L 1338 1794.727 L 1338 1794.727 L 1338 1851.818 L 1338 1851.818 L 1309.455 1851.818 Q 1280.909 1851.818 1280.909 1823.273 L 1280.909 1794.727 L 1280.909 1794.727 Z" fill="#000000"/>
<path d="M 1338 1794.727 L 1395.091 1794.727 L 1395.091 1794.727 L 1395.091 1851.818 L 1395.091 1851.818 L 1338 1851.818 L 1338 1851.818 L 1338 1794.727 L 1338 1794.727 Z" fill="#000000"/>
<path d="M 1395.091 1794.727 L 1452.182 1794.727 L 1452.182 1794.727 L 1452.182 1851.818 L 1452.182 1851.818 L 1395.091 1851.818 L 1395.091 1851.818 L 1395.091 1794.727 L 1395.091 1794.727 Z" fill="#000000"/>
<path d="M 1452.182 1794.727 L 1509.273 1794.727 L 1509.273 1794.727 L 1509.273 1851.818 L 1509.273 1851.818 L 1452.182 1851.818 L 1452.182 1851.818 L 1452.182 1794.727 L 1452.182 1794.727 Z" fill="#000000"/>
<path d="M 1509.273 1794.727 L 1566.364 1794.727 L 1566.364 1794.727 L 1566.364 1851.818 L 1566.364 1851.818 L 1509.273 1851.818 L 1509.273 1851.818 L 1509.273 1794.727 L 1509.273 1794.727 Z" fill="#000000"/>
<path d="M 1566.364 1794.727 L 1594.909 1794.727 Q 1623.455 1794.727 1623.455 1823.273 L 1623.455 1823.273 Q 1623.455 1851.818 1594.909 1851.818 L 1566.364 1851.818 L 1566.364 1851.818 L 1566.364 1794.727 L 1566.364 1794.727 Z" fill="#000000"/>
<path d="M 1737.636 1794.727 L 1794.727 1794.727 L 1794.727 1794.727 L 1794.727 1851.818 L 1794.727 1851.818 L 1766.182 1851.818 Q 1737.636 1851.818 1737.636 1823.273 L 1737.636 1794.727 L 1737.636 1794.727 Z" fill="#000000"/>
<path d="M 1794.727 1794.727 L 1823.273 1794.727 Q 1851.818 1794.727 1851.818 1823.273 L 1851.818 1823.273 Q 1851.818 1851.818 1823.273 1851.818 L 1794.727 1851.818 L 1794.727 1851.818 L 1794.727 1794.727 L 1794.727 1794.727 Z" fill="#000000"/>
<path d="M 333.2 196.182 L 458.8 196.182 Q 595.818 196.182 595.818 333.2 L 595.818 458.8 Q 595.818 595.818 458.8 595.818 L 333.2 595.818 Q 196.182 595.818 196.182 458.8 L 196.182 333.2 Q 196.182 196.182 333.2 196.182 Z" fill="#000000"/>
<path d="M 350.327 253.273 L 441.673 253.273 Q 538.727 253.273 538.727 350.327 L 538.727 441.673 Q 538.727 538.727 441.673 538.727 L 350.327 538.727 Q 253.273 538.727 253.273 441.673 L 253.273 350.327 Q 253.273 253.273 350.327 253.273 Z" fill="#ffffff"/>
<path d="M 378.873 310.364 L 413.127 310.364 Q 481.636 310.364 481.636 378.873 L 481.636 413.127 Q 481.636 481.636 413.127 481.636 L 378.873 481.636 Q 310.364 481.636 310.364 413.127 L 310.364 378.873 Q 310.364 310.364 378.873 310.364 Z" fill="#000000"/>
<path d="M 1589.2 196.182 L 1714.8 196.182 Q 1851.818 196.182 1851.818 333.2 L 1851.818 458.8 Q 1851.818 595.818 1714.8 595.818 L 1589.2 595.818 Q 1452.182 595.818 1452.182 458.8 L 1452.182 333.2 Q 1452.182 196.182 1589.2 196.182 Z" fill="#000000"/>
<path d="M 1606.327 253.273 L 1697.673 253.273 Q 1794.727 253.273 1794.727 350.327 L 1794.727 441.673 Q 1794.727 538.727 1697.673 538.727 L 1606.327 538.727 Q 1509.273 538.727 1509.273 441.673 L 1509.273 350.327 Q 1509.273 253.273 1606.327 253.273 Z" fill="#ffffff"/>
<path d="M 1634.873 310.364 L 1669.127 310.364 Q 1737.636 310.364 1737.636 378.873 L 1737.636 413.127 Q 1737.636 481.636 1669.127 481.636 L 1634.873 481.636 Q 1566.364 481.636 1566.364 413.127 L 1566.364 378.873 Q 1566.364 310.364 1634.873 310.364 Z" fill="#000000"/>
<path d="M 333.2 1452.182 L 458.8 1452.182 Q 595.818 1452.182 595.818 1589.2 L 595.818 1714.8 Q 595.818 1851.818 458.8 1851.818 L 333.2 1851.818 Q 196.182 1851.818 196.182 1714.8 L 196.182 1589.2 Q 196.182 1452.182 333.2 1452.182 Z" fill="#000000"/>
<path d="M 350.327 1509.273 L 441.673 1509.273 Q 538.727 1509.273 538.727 1606.327 L 538.727 1697.673 Q 538.727 1794.727 441.673 1794.727 L 350.327 1794.727 Q 253.273 1794.727 253.273 1697.673 L 253.273 1606.327 Q 253.273 1509.273 350.327 1509.273 Z" fill="#ffffff"/>
<path d="M 378.873 1566.364 L 413.127 1566.364 Q 481.636 1566.364 481.636 1634.873 L 481.636 1669.127 Q 481.636 1737.636 413.127 1737.636 L 378.873 1737.636 Q 310.364 1737.636 310.364 1669.127 L 310.364 1634.873 Q 310.364 1566.364 378.873 1566.364 Z" fill="#000000"/>
</svg>